<?xml version="1.0" encoding="UTF-8"?>
<svg width="800px" height="500px" viewBox="0 0 800 500" version="1.1" xmlns="http://www.w3.org/2000/svg" xmlns:xlink="http://www.w3.org/1999/xlink">
    <!-- Generator: Sketch 48.2 (47327) - http://www.bohemiancoding.com/sketch -->
    <title>oryoki</title>
    <desc>Created with Sketch.</desc>
    <defs>
        <rect id="path-1" x="0" y="0" width="800" height="500" shape-rendering="crispEdges"></rect>
    </defs>
    <g id="oryoki" stroke="none" stroke-width="1" fill="none" fill-rule="evenodd">
        <g>
            <mask id="mask-2" fill="white">
                <use xlink:href="#path-1"></use>
            </mask>
            <use id="window" fill="#F7F7F7" xlink:href="#path-1"></use>
            <g id="handle" mask="url(#mask-2)">
                <g transform="translate(0.000000, 3.000000)">
                    <g id="title" stroke="none" stroke-width="1" fill="none" fill-rule="evenodd" transform="translate(373.000000, 0.000000)">
                        <path d="M5.79345703,3.18212891 C8.79638672,3.18212891 10.6274414,5.32080078 10.6274414,8.71191406 C10.6274414,12.0883789 8.81103516,14.2490234 5.79345703,14.2490234 C2.76123047,14.2490234 0.9375,12.0957031 0.9375,8.71191406 C0.9375,5.31347656 2.80517578,3.18212891 5.79345703,3.18212891 Z M5.79345703,4.39794922 C3.64013672,4.39794922 2.29248047,6.06787109 2.29248047,8.71191406 C2.29248047,11.3339844 3.59619141,13.0332031 5.79345703,13.0332031 C7.96142578,13.0332031 9.27246094,11.3339844 9.27246094,8.71191406 C9.27246094,6.06787109 7.95410156,4.39794922 5.79345703,4.39794922 Z M8.26171875,1.13867188 L8.26171875,2.13476562 L3.32519531,2.13476562 L3.32519531,1.13867188 L8.26171875,1.13867188 Z M12.3228934,14 L12.3228934,6.10449219 L13.5240653,6.10449219 L13.5240653,7.27636719 L13.6412528,7.27636719 C13.8756278,6.50732422 14.7838309,5.96533203 15.8311942,5.96533203 C16.0362723,5.96533203 16.2999442,5.97998047 16.461077,6.00195313 L16.461077,7.26171875 C16.3585379,7.23242188 15.9044364,7.18847656 15.6554129,7.18847656 C14.4542411,7.18847656 13.582659,7.99414063 13.582659,9.10742188 L13.582659,14 L12.3228934,14 Z M18.2810407,16.8564453 C18.1125837,16.8564453 17.8928571,16.8417969 17.7170759,16.8125 L17.7170759,15.7358398 C17.8708845,15.7651367 18.0686384,15.7724609 18.2444196,15.7724609 C18.9695173,15.7724609 19.3650251,15.4282227 19.6946149,14.4760742 L19.8410993,14.0073242 L16.918736,6.10449219 L18.2810407,6.10449219 L20.4490095,12.6010742 L20.566197,12.6010742 L22.7268415,6.10449219 L24.0671735,6.10449219 L20.9836774,14.4833984 C20.3098493,16.3144531 19.6799665,16.8564453 18.2810407,16.8564453 Z M28.2748326,14.1391602 C26.0262974,14.1391602 24.6346959,12.5864258 24.6346959,10.0522461 C24.6346959,7.51074219 26.0262974,5.96533203 28.2748326,5.96533203 C30.5233677,5.96533203 31.9149693,7.51074219 31.9149693,10.0522461 C31.9149693,12.5864258 30.5233677,14.1391602 28.2748326,14.1391602 Z M28.2748326,13.0039063 C29.7689732,13.0039063 30.6112584,11.9199219 30.6112584,10.0522461 C30.6112584,8.17724609 29.7689732,7.10058594 28.2748326,7.10058594 C26.780692,7.10058594 25.9384068,8.17724609 25.9384068,10.0522461 C25.9384068,11.9199219 26.780692,13.0039063 28.2748326,13.0039063 Z M30.7430943,3.58496094 L30.7430943,4.58105469 L25.8065709,4.58105469 L25.8065709,3.58496094 L30.7430943,3.58496094 Z M34.9141322,9.55419922 L38.3418666,6.10449219 L39.8872768,6.10449219 L36.4888393,9.48828125 L40.1143275,14 L38.5103236,14 L35.5513393,10.3012695 L34.7969447,11.0043945 L34.7969447,14 L33.5371791,14 L33.5371791,2.96972656 L34.7969447,2.96972656 L34.7969447,9.55419922 L34.9141322,9.55419922 Z M41.2091936,14 L41.2091936,6.10449219 L42.4689592,6.10449219 L42.4689592,14 L41.2091936,14 Z M41.8390764,4.50048828 C41.355678,4.50048828 40.9601702,4.10498047 40.9601702,3.62158203 C40.9601702,3.13818359 41.355678,2.74267578 41.8390764,2.74267578 C42.3224749,2.74267578 42.7179827,3.13818359 42.7179827,3.62158203 C42.7179827,4.10498047 42.3224749,4.50048828 41.8390764,4.50048828 Z" id="Ōryōki" fill="#000000" opacity="0.900000036"></path>
                        <circle id="Oval-3" fill="#CACACA" cx="52" cy="9" r="2"></circle>
                    </g>
                    <circle id="btn-close" stroke="none" fill="#FF5A52" fill-rule="evenodd" cx="14" cy="9" r="6"></circle>
                    <circle id="btn-mini" stroke="none" fill="#D2D2D2" fill-rule="evenodd" cx="34" cy="9" r="6"></circle>
                    <circle id="btn-maxi" stroke="none" fill="#D2D2D2" fill-rule="evenodd" cx="54" cy="9" r="6"></circle>
                    <path d="M0,20 L800,20" id="__" stroke="#D7D7D7" stroke-width="1" fill="none" shape-rendering="crispEdges"></path>
                </g>
            </g>
            <g id="omnibox" mask="url(#mask-2)">
                <g transform="translate(158.000000, 49.000000)">
                    <rect id="omnibox-background" shape-rendering="crispEdges" fill="#EDEDED" x="0" y="0" width="485" height="54"></rect>
                    <rect id="selection" shape-rendering="crispEdges" fill="#BADFEB" x="16" y="13" width="73" height="28"></rect>
                    <path d="M20.9082031,33.1855469 C17.9101562,33.1855469 16.0546875,31.1152344 16.0546875,27.7363281 C16.0546875,24.3476562 17.9101562,22.2871094 20.9082031,22.2871094 C23.90625,22.2871094 25.7617188,24.3476562 25.7617188,27.7363281 C25.7617188,31.1152344 23.90625,33.1855469 20.9082031,33.1855469 Z M20.9082031,31.671875 C22.9003906,31.671875 24.0234375,30.2265625 24.0234375,27.7363281 C24.0234375,25.2363281 22.9003906,23.8007812 20.9082031,23.8007812 C18.9160156,23.8007812 17.7929688,25.2363281 17.7929688,27.7363281 C17.7929688,30.2265625 18.9160156,31.671875 20.9082031,31.671875 Z M27.6984375,33 L27.6984375,22.4726562 L29.3,22.4726562 L29.3,24.0351562 L29.45625,24.0351562 C29.76875,23.0097656 30.9796875,22.2871094 32.3761719,22.2871094 C32.6496094,22.2871094 33.0011719,22.3066406 33.2160156,22.3359375 L33.2160156,24.015625 C33.0792969,23.9765625 32.4738281,23.9179688 32.1417969,23.9179688 C30.5402344,23.9179688 29.378125,24.9921875 29.378125,26.4765625 L29.378125,33 L27.6984375,33 Z M35.5140625,36.8085938 C35.2894531,36.8085938 34.9964844,36.7890625 34.7621094,36.75 L34.7621094,35.3144531 C34.9671875,35.3535156 35.2308594,35.3632812 35.4652344,35.3632812 C36.4320313,35.3632812 36.959375,34.9042969 37.3988281,33.6347656 L37.5941406,33.0097656 L33.6976563,22.4726562 L35.5140625,22.4726562 L38.4046875,31.1347656 L38.5609375,31.1347656 L41.4417969,22.4726562 L43.2289063,22.4726562 L39.1175781,33.6445312 C38.2191406,36.0859375 37.3792969,36.8085938 35.5140625,36.8085938 Z M48.7105469,33.1855469 C45.7125,33.1855469 43.8570313,31.1152344 43.8570313,27.7363281 C43.8570313,24.3476562 45.7125,22.2871094 48.7105469,22.2871094 C51.7085938,22.2871094 53.5640625,24.3476562 53.5640625,27.7363281 C53.5640625,31.1152344 51.7085938,33.1855469 48.7105469,33.1855469 Z M48.7105469,31.671875 C50.7027344,31.671875 51.8257813,30.2265625 51.8257813,27.7363281 C51.8257813,25.2363281 50.7027344,23.8007812 48.7105469,23.8007812 C46.7183594,23.8007812 45.5953125,25.2363281 45.5953125,27.7363281 C45.5953125,30.2265625 46.7183594,31.671875 48.7105469,31.671875 Z M57.434375,27.0722656 L62.0046875,22.4726562 L64.0652344,22.4726562 L59.5339844,26.984375 L64.3679688,33 L62.2292969,33 L58.2839844,28.0683594 L57.278125,29.0058594 L57.278125,33 L55.5984375,33 L55.5984375,18.2929688 L57.278125,18.2929688 L57.278125,27.0722656 L57.434375,27.0722656 Z M65.6992188,33 L65.6992188,22.4726562 L67.3789063,22.4726562 L67.3789063,33 L65.6992188,33 Z M66.5390626,20.3339844 C65.8945313,20.3339844 65.3671876,19.8066406 65.3671876,19.1621094 C65.3671876,18.5175781 65.8945313,17.9902344 66.5390626,17.9902344 C67.1835938,17.9902344 67.7109376,18.5175781 67.7109376,19.1621094 C67.7109376,19.8066406 67.1835938,20.3339844 66.5390626,20.3339844 Z M71.2687501,33.0976562 C70.5753907,33.0976562 69.9992188,32.5214844 69.9992188,31.828125 C69.9992188,31.125 70.5753907,30.5585938 71.2687501,30.5585938 C71.9718751,30.5585938 72.5382813,31.125 72.5382813,31.828125 C72.5382813,32.5214844 71.9718751,33.0976562 71.2687501,33.0976562 Z M75.1585938,33 L75.1585938,22.4726562 L76.8382813,22.4726562 L76.8382813,33 L75.1585938,33 Z M75.9984376,20.3339844 C75.3539063,20.3339844 74.8265626,19.8066406 74.8265626,19.1621094 C74.8265626,18.5175781 75.3539063,17.9902344 75.9984376,17.9902344 C76.6429688,17.9902344 77.1703126,18.5175781 77.1703126,19.1621094 C77.1703126,19.8066406 76.6429688,20.3339844 75.9984376,20.3339844 Z M83.6675782,33.1855469 C80.6695313,33.1855469 78.8140626,31.1152344 78.8140626,27.7363281 C78.8140626,24.3476562 80.6695313,22.2871094 83.6675782,22.2871094 C86.6656251,22.2871094 88.5210938,24.3476562 88.5210938,27.7363281 C88.5210938,31.1152344 86.6656251,33.1855469 83.6675782,33.1855469 Z M83.6675782,31.671875 C85.6597657,31.671875 86.7828126,30.2265625 86.7828126,27.7363281 C86.7828126,25.2363281 85.6597657,23.8007812 83.6675782,23.8007812 C81.6753907,23.8007812 80.5523438,25.2363281 80.5523438,27.7363281 C80.5523438,30.2265625 81.6753907,31.671875 83.6675782,31.671875 Z" id="oryoki.io" fill="#000000" opacity="0.900000036"></path>
                </g>
            </g>
        </g>
    </g>
</svg>